<?xml version="1.0" encoding="UTF-8"?>
<svg version="1.1" xmlns="http://www.w3.org/2000/svg" width="1920" height="1920">
<path d="M0 0 C633.6 0 1267.2 0 1920 0 C1920 633.6 1920 1267.2 1920 1920 C1286.4 1920 652.8 1920 0 1920 C0 1286.4 0 652.8 0 0 Z " fill="#7E7BFE" transform="translate(0,0)"/>
<path d="M0 0 C3.38682296 1.2538451 6.75714843 2.26753639 10.234375 3.234375 C17.50623795 5.40862548 24.05154501 8.84612894 30.74853516 12.35546875 C35.19329338 14.67545426 39.62723957 16.92192679 44.25390625 18.859375 C47.84013891 20.43321882 51.03970786 22.28507411 54.359375 24.359375 C55.45636719 25.04 56.55335938 25.720625 57.68359375 26.421875 C59.42652718 27.5519338 61.1480215 28.7195371 62.8046875 29.97265625 C64.74769628 31.41568579 66.70073963 32.45772747 68.859375 33.546875 C73.32291257 35.96889293 76.76916596 38.99644931 80.47265625 42.44140625 C83.05847286 44.69653229 85.75540621 46.40132924 88.75 48.05859375 C91.3969389 49.85011947 93.43501207 52.07719213 95.671875 54.359375 C96.77883196 55.39482354 97.89249762 56.42313275 99.01171875 57.4453125 C99.60017578 57.98414063 100.18863281 58.52296875 100.79492188 59.078125 C101.99853866 60.1767978 103.20425113 61.27317939 104.41210938 62.3671875 C108.02166153 65.68087472 111.28799631 69.11046316 114.39404297 72.90234375 C115.71205309 74.50822198 115.71205309 74.50822198 117.859375 75.984375 C119.671875 77.359375 119.671875 77.359375 121.015625 79.65234375 C122.75326768 82.49240597 124.68554551 84.64481655 126.984375 87.046875 C137.671875 98.69485294 137.671875 98.69485294 137.671875 104.359375 C138.331875 104.359375 138.991875 104.359375 139.671875 104.359375 C141.11191346 106.43563734 142.40321888 108.49250111 143.671875 110.671875 C144.06342773 111.33541992 144.45498047 111.99896484 144.85839844 112.68261719 C153.68785466 127.82181921 162.19173136 143.28841802 167.04150391 160.18994141 C167.79926363 162.7977853 168.5855823 165.39647602 169.37109375 167.99609375 C173.45581023 181.60174029 177.4468012 194.90220567 178.23046875 209.16796875 C178.27174393 209.90155609 178.3130191 210.63514343 178.35554504 211.39096069 C180.21432186 247.03118097 179.23838062 281.95380382 165.76416016 315.49829102 C164.79274893 318.04276312 164.02742162 320.53478676 163.359375 323.171875 C161.41565429 329.90431545 158.02865927 336.01889586 154.79541016 342.20214844 C153.66944971 344.36403164 152.56583464 346.53624899 151.46484375 348.7109375 C146.81743296 357.79762038 141.64150468 366.08407573 135.671875 374.359375 C135.03507812 375.33777344 134.39828125 376.31617188 133.7421875 377.32421875 C131.46909311 380.6566609 128.9881828 383.68156594 126.359375 386.734375 C125.68745117 387.52328125 125.68745117 387.52328125 125.00195312 388.328125 C123.56509182 390.01089892 122.1188647 391.68530554 120.671875 393.359375 C120.14489014 393.97611084 119.61790527 394.59284668 119.07495117 395.22827148 C108.37185659 407.64546721 96.71169077 419.38989923 83.5546875 429.1953125 C81.18339462 430.97538873 78.98615957 432.80393882 76.796875 434.796875 C74.02418244 437.23601056 71.14219765 438.71336806 67.79931641 440.24731445 C65.6681875 441.36130254 63.9743141 442.61029044 62.10546875 444.1171875 C57.27824693 447.798579 52.07378281 450.4951767 46.671875 453.234375 C45.15327881 454.01264648 45.15327881 454.01264648 43.60400391 454.80664062 C41.57131635 455.84666526 39.53700316 456.88351956 37.50097656 457.91699219 C35.0142474 459.18482062 32.54005013 460.47293698 30.0703125 461.7734375 C23.10748897 465.4061433 16.26263388 468.37365652 8.671875 470.50390625 C5.83692157 471.31231094 3.11716313 472.2586006 0.359375 473.296875 C-1.53616461 473.98518442 -3.43201617 474.67263518 -5.328125 475.359375 C-6.36839844 475.75125 -7.40867187 476.143125 -8.48046875 476.546875 C-22.63138411 481.46358826 -37.54936715 483.25926995 -52.328125 485.359375 C-54.19585571 485.64518433 -54.19585571 485.64518433 -56.10131836 485.93676758 C-67.36830014 487.54020899 -78.52226832 487.71285822 -89.890625 487.671875 C-90.8586908 487.67104919 -91.82675659 487.67022339 -92.82415771 487.66937256 C-109.99189522 487.63565953 -126.23854305 486.21067786 -143.06884766 482.79248047 C-145.76906128 482.27484713 -148.47355274 481.93413997 -151.203125 481.609375 C-164.87240687 479.54851743 -178.10788304 474.65806989 -190.9453125 469.65625 C-193.05599561 468.84707357 -195.18632927 468.08555107 -197.33984375 467.3984375 C-200.79948307 466.19547795 -204.01062209 464.64576958 -207.265625 462.984375 C-207.93295654 462.64712402 -208.60028809 462.30987305 -209.2878418 461.96240234 C-215.75973903 458.67737463 -222.20112064 455.33233291 -228.640625 451.984375 C-229.64923584 451.46053223 -230.65784668 450.93668945 -231.69702148 450.39697266 C-233.11736694 449.65519775 -233.11736694 449.65519775 -234.56640625 448.8984375 C-235.41243408 448.45709473 -236.25846191 448.01575195 -237.13012695 447.56103516 C-239.328125 446.359375 -239.328125 446.359375 -242.328125 444.359375 C-242.328125 443.699375 -242.328125 443.039375 -242.328125 442.359375 C-243.2871875 442.0190625 -243.2871875 442.0190625 -244.265625 441.671875 C-250.99831006 438.78643855 -256.19703387 435.61561469 -261.328125 430.359375 C-263.95537393 428.4845116 -266.62068616 426.68500261 -269.31640625 424.91015625 C-269.98027344 424.39839844 -270.64414062 423.88664062 -271.328125 423.359375 C-271.328125 422.699375 -271.328125 422.039375 -271.328125 421.359375 C-271.88628906 421.12863281 -272.44445312 420.89789062 -273.01953125 420.66015625 C-275.94101701 419.01403991 -277.92867166 416.94864368 -280.265625 414.546875 C-281.09964844 413.69480469 -281.93367187 412.84273437 -282.79296875 411.96484375 C-283.62957031 411.10503906 -284.46617187 410.24523438 -285.328125 409.359375 C-287.74439937 406.92439882 -290.17103603 404.50933556 -292.65234375 402.140625 C-298.40619211 396.586497 -303.33751697 390.7328855 -308.1015625 384.33984375 C-309.50275218 382.46421616 -310.93515493 380.61112234 -312.41015625 378.79296875 C-314.33221117 376.35419031 -315.99475051 373.86620295 -317.640625 371.234375 C-320.27457884 367.02636288 -320.27457884 367.02636288 -322.984375 362.8671875 C-333.764099 346.54505824 -341.80883472 329.09355136 -347.328125 310.359375 C-347.97296135 308.31739323 -348.61880777 306.27573017 -349.265625 304.234375 C-350.92157185 298.82145781 -352.47128899 293.38460797 -353.953125 287.921875 C-354.15929443 287.18372559 -354.36546387 286.44557617 -354.57788086 285.68505859 C-358.57810711 270.66757635 -358.73061766 255.77228326 -358.75366211 240.32348633 C-358.76547817 236.59322851 -358.81470699 232.86467218 -358.86523438 229.13476562 C-359.01739987 206.53589859 -354.90290854 185.89769231 -347.99072266 164.46484375 C-347.40000115 162.58776849 -346.86587851 160.69309515 -346.33984375 158.796875 C-344.01313771 150.43303302 -340.39949698 143.07476794 -336.39257812 135.42089844 C-335.33604017 133.37470429 -334.3182686 131.3137559 -333.3125 129.2421875 C-329.16369246 120.70933076 -324.93584813 112.04695789 -319.328125 104.359375 C-318.668125 104.359375 -318.008125 104.359375 -317.328125 104.359375 C-317.05226563 103.62203125 -316.77640625 102.8846875 -316.4921875 102.125 C-313.45489949 94.90889292 -308.38179481 89.13295971 -303.13671875 83.421875 C-301.15930743 81.26746381 -301.15930743 81.26746381 -299.265625 78.171875 C-297.18882856 75.15717049 -294.99212544 73.28011897 -292.1796875 70.98828125 C-290.21444181 69.25936257 -288.57800404 67.42130359 -286.890625 65.421875 C-283.90057275 61.90100448 -280.67525297 58.91687465 -277.15234375 55.9375 C-275.181313 54.28465171 -275.181313 54.28465171 -273.015625 51.921875 C-269.64624024 48.70920581 -265.96422688 46.11526046 -262.17578125 43.41796875 C-259.560404 41.52729137 -257.03470582 39.56299214 -254.515625 37.546875 C-246.63291952 31.359375 -246.63291952 31.359375 -242.328125 31.359375 C-242.328125 30.699375 -242.328125 30.039375 -242.328125 29.359375 C-239.7734375 27.6328125 -239.7734375 27.6328125 -236.453125 25.734375 C-235.36257813 25.10273437 -234.27203125 24.47109375 -233.1484375 23.8203125 C-230.328125 22.359375 -230.328125 22.359375 -228.328125 22.359375 C-228.328125 21.699375 -228.328125 21.039375 -228.328125 20.359375 C-227.49152344 20.0190625 -226.65492188 19.67875 -225.79296875 19.328125 C-219.44106545 16.68325718 -213.43516665 13.91236263 -207.453125 10.484375 C-197.37362022 4.86306082 -186.30499356 1.75268013 -175.328125 -1.640625 C-174.4014502 -1.93243652 -173.47477539 -2.22424805 -172.52001953 -2.52490234 C-169.91733937 -3.34423835 -167.31146579 -4.15200813 -164.703125 -4.953125 C-163.95973877 -5.18338379 -163.21635254 -5.41364258 -162.45043945 -5.65087891 C-112.52980813 -20.59034987 -48.54698994 -18.44725273 0 0 Z " fill="#FEFB63" transform="translate(1024.328125,712.640625)"/>
</svg>
